<svg xmlns="http://www.w3.org/2000/svg" xmlns:xlink="http://www.w3.org/1999/xlink" version="1.1" viewBox="96.77 96.77 3000 1115.4">

    <g transform="scale(9.67741935483871) translate(10, 10)">
        <defs id="SvgjsDefs3296"/>
        <g id="SvgjsG3297" featureKey="nameFeature-0" transform="matrix(2.2881606862716057,0,0,2.2881606862716057,-0.7322114714332157,-25.261291706992047)" fill="#1C2826">
            <path d="M0.32 11.440000000000001 l6.96 0 l3.6 17.84 l4.44 -17.84 l6 0 l4.4 18.24 l3.88 -18.24 l6.36 0 l-0.28 1.22 l-0.76 3.24 l-1.1 4.58 l-1.26 5.24 l-1.26 5.26 l-1.12 4.58 l-0.8 3.22 l-0.3 1.22 l-6.8 0 l-4.2 -17.24 l-4.48 17.24 l-6.4 0 z M38.088 11.48 c2.56 -0.24 5.1468 -0.36008 7.76 -0.36008 c1.36 0 2.7267 0.13332 4.1 0.4 s2.6133 0.77336 3.72 1.52 s2.0134 1.7867 2.72 3.12 s1.06 3.0533 1.06 5.16 s-0.35332 3.82 -1.06 5.14 s-1.6134 2.3533 -2.72 3.1 s-2.34 1.2534 -3.7 1.52 s-2.7067 0.4 -4.04 0.4 c-0.18668 0 -0.4 -0.0066796 -0.64 -0.02 s-0.46668 -0.03332 -0.68 -0.06 l0 8.6 l-6.52 0 l0 -28.52 z M44.608000000000004 24.96 l-0.16 0.88 c0.82668 0.10668 1.62 0.1 2.38 -0.02 s1.4267 -0.36 2 -0.72 s1.0333 -0.84668 1.38 -1.46 s0.52 -1.36 0.52 -2.24 s-0.13332 -1.62 -0.4 -2.22 s-0.62 -1.08 -1.06 -1.44 s-0.94 -0.62 -1.5 -0.78 s-1.1467 -0.24 -1.76 -0.24 l-0.56 0 l-0.84 0.08 l0 8.16 z M81.344 40.44 c-2.1867 0 -4.0468 -0.37332 -5.58 -1.12 s-2.7866 -1.7734 -3.76 -3.08 s-1.6866 -2.86 -2.14 -4.66 s-0.68 -3.7667 -0.68 -5.9 s0.22668 -4.1 0.68 -5.9 s1.1666 -3.3467 2.14 -4.64 s2.2266 -2.3 3.76 -3.02 s3.3933 -1.08 5.58 -1.08 s4.0468 0.36 5.58 1.08 s2.7866 1.7267 3.76 3.02 s1.68 2.84 2.12 4.64 s0.66 3.7667 0.66 5.9 s-0.22 4.1 -0.66 5.9 s-1.1467 3.3533 -2.12 4.66 s-2.2266 2.3334 -3.76 3.08 s-3.3933 1.12 -5.58 1.12 z M81.344 34.84 c1.84 0 3.1667 -0.76 3.98 -2.28 s1.22 -3.8133 1.22 -6.88 s-0.39332 -5.32 -1.18 -6.76 s-2.1134 -2.16 -3.98 -2.16 c-1.8933 0 -3.2466 0.72 -4.06 2.16 s-1.22 3.6933 -1.22 6.76 s0.40668 5.36 1.22 6.88 s2.1533 2.28 4.02 2.28 z M100.272 17.08 l-6.84 0 l0 -5.68 l20.6 0 l-0.92 2.8 l-0.92 2.88 l-5.36 0 l0.12 1.12 l0 21.8 l-6.68 0 l0 -22.92 z M116.44000000000001 11.48 c2.56 -0.24 5.1468 -0.36008 7.76 -0.36008 c1.36 0 2.7267 0.13332 4.1 0.4 s2.6133 0.77336 3.72 1.52 s2.0134 1.7867 2.72 3.12 s1.06 3.0533 1.06 5.16 s-0.35332 3.82 -1.06 5.14 s-1.6134 2.3533 -2.72 3.1 s-2.34 1.2534 -3.7 1.52 s-2.7067 0.4 -4.04 0.4 c-0.18668 0 -0.4 -0.0066796 -0.64 -0.02 s-0.46668 -0.03332 -0.68 -0.06 l0 8.6 l-6.52 0 l0 -28.52 z M122.96000000000001 24.96 l-0.16 0.88 c0.82668 0.10668 1.62 0.1 2.38 -0.02 s1.4267 -0.36 2 -0.72 s1.0333 -0.84668 1.38 -1.46 s0.52 -1.36 0.52 -2.24 s-0.13332 -1.62 -0.4 -2.22 s-0.62 -1.08 -1.06 -1.44 s-0.94 -0.62 -1.5 -0.78 s-1.1467 -0.24 -1.76 -0.24 l-0.56 0 l-0.84 0.08 l0 8.16 z"/>
        </g>
        <g id="SvgjsG3298" featureKey="sloganFeature-0" transform="matrix(1.972447368299773,0,0,1.972447368299773,-1.6949233524133642,75.44262160168988)" fill="#1C2826">
            <path d="M6.4648 20.18555 c-2.9492 0 -5.1563 -1.4063 -5.6055 -3.8672 l2.4023 -0.55664 c0.25391 1.6016 1.5723 2.4805 3.291 2.4805 c1.3574 0 2.5879 -0.57617 2.5684 -2.041 c-0.019531 -1.5234 -1.709 -1.9629 -3.5352 -2.4805 c-2.1094 -0.61523 -4.2773 -1.3184 -4.2773 -3.877 c0 -2.5977 2.1289 -3.9648 4.7754 -3.9648 c2.4414 0 4.7559 1.0254 5.293 3.5254 l-2.2559 0.56641 c-0.3125 -1.4844 -1.4648 -2.1387 -2.9199 -2.1387 c-1.2988 0 -2.5293 0.55664 -2.5293 1.9727 c0 1.2891 1.4746 1.6895 3.1641 2.1582 c2.1777 0.60547 4.6973 1.3477 4.6973 4.1406 c0 2.8809 -2.4121 4.082 -5.0684 4.082 z M29.4233359375 20 l-2.3145 0 l-0.91797 -10.996 l-3.9941 10.996 l-1.4648 0 l-3.9746 -10.977 l-0.92773 10.977 l-2.3242 0 l1.1133 -13.926 l3.252 0 l3.584 9.8438 l3.6133 -9.8438 l3.252 0 z M36.853471875 20.18555 c-2.9492 0 -5.1563 -1.4063 -5.6055 -3.8672 l2.4023 -0.55664 c0.25391 1.6016 1.5723 2.4805 3.291 2.4805 c1.3574 0 2.5879 -0.57617 2.5684 -2.041 c-0.019531 -1.5234 -1.709 -1.9629 -3.5352 -2.4805 c-2.1094 -0.61523 -4.2773 -1.3184 -4.2773 -3.877 c0 -2.5977 2.1289 -3.9648 4.7754 -3.9648 c2.4414 0 4.7559 1.0254 5.293 3.5254 l-2.2559 0.56641 c-0.3125 -1.4844 -1.4648 -2.1387 -2.9199 -2.1387 c-1.2988 0 -2.5293 0.55664 -2.5293 1.9727 c0 1.2891 1.4746 1.6895 3.1641 2.1582 c2.1777 0.60547 4.6973 1.3477 4.6973 4.1406 c0 2.8809 -2.4121 4.082 -5.0684 4.082 z M51.34379375 17.9687 l6.4258 0 l0 2.0313 l-9.6094 0 l0 -1.6992 l5.5664 -5.7129 c1.084 -1.1133 1.3965 -1.9531 1.3965 -2.7344 c0 -1.3672 -0.87891 -2.1289 -2.207 -2.1289 c-1.3184 0 -2.2949 0.69336 -2.2949 2.5977 l0 1.0254 l-2.2363 -0.21484 l0 -0.78125 c0 -2.9492 1.8164 -4.4922 4.5215 -4.4922 c2.5391 0 4.4336 1.4551 4.4336 3.9844 c0 1.4648 -0.63477 2.5684 -1.9043 3.8867 z M68.1884296875 8.154 l-5.5176 0 l0 3.8477 l4.7852 0 l0 2.0703 l-4.7852 0 l0 5.9277 l-2.3633 0 l0 -13.926 l7.8809 0 l0 2.0801 z M79.57440625 20 l-1.1035 -3.0957 l-6.084 0 l-1.0938 3.0957 l-2.4121 0 l5.127 -13.926 l2.8418 0 l5.127 13.926 l-2.4023 0 z M73.09960625 14.9023 l4.668 0 l-2.334 -6.582 z"/>
        </g>
    </g>
</svg>